<svg id="Layer_1" data-name="Layer 1" xmlns="http://www.w3.org/2000/svg" xmlns:xlink="http://www.w3.org/1999/xlink" viewBox="0 0 116.09 271.94"><defs><style>.cls-1{fill:none;}.cls-2{clip-path:url(#clip-path);}.cls-3{fill:#fff;}</style><clipPath id="clip-path" transform="translate(-121.95 -44.03)"><rect class="cls-1" width="360" height="360"/></clipPath></defs><g class="cls-2"><path class="cls-3" d="M220.53,61a17,17,0,1,0-17,17,17,17,0,0,0,17-17m-36.4,168.54v56.78c0,17.16-6,27.4-18.25,28.6a44.35,44.35,0,1,1,18.25-85.38M238.05,73l-.39-.93L229,75.68,184.13,94.25l-9.48,3.93.39.93,9.09-3.76v72.23l-1.35.56a2.82,2.82,0,0,0,0,5.2,2.89,2.89,0,0,0,1.08.22l.27,0a2.54,2.54,0,0,0,.8-.2l43.54-18a1.91,1.91,0,0,1,.51-.13,1.81,1.81,0,0,1,1.85,1.1,1.81,1.81,0,0,1-1,2.36L229,159l-44.85,18.58-1.16.47a2.81,2.81,0,0,0-1.52,1.53,2.77,2.77,0,0,0,0,2.15,2.83,2.83,0,0,0,2.61,1.74h.07a2.78,2.78,0,0,0,1-.22l43.08-17.84a1.75,1.75,0,0,1,.77-.14,1.82,1.82,0,0,1,1.59,1.12,1.74,1.74,0,0,1,0,1.38,1.82,1.82,0,0,1-1,1L229,169l-44.85,18.58-1.16.48a2.81,2.81,0,0,0,1.09,5.41h.07v35A45.36,45.36,0,1,0,167.31,316c38,0,61.67-21.89,61.67-57.13V174l-44.24,18.33a1.91,1.91,0,0,1-.61.13,1.8,1.8,0,0,1-.77-3.47l.77-.32L229,170.1l1-.41a2.82,2.82,0,0,0,0-5.2,2.72,2.72,0,0,0-2.15,0l-43.09,17.84a1.69,1.69,0,0,1-.61.14,1.81,1.81,0,0,1-1.75-2.5,1.84,1.84,0,0,1,1-1l.77-.31L229,160.1l1.26-.52a2.81,2.81,0,0,0,1.52-3.68,2.82,2.82,0,0,0-2.78-1.73,2.82,2.82,0,0,0-.89.21l-43.54,18a2.21,2.21,0,0,1-.42.12,1.85,1.85,0,0,1-1-.12,1.81,1.81,0,0,1-1-2.36,1.78,1.78,0,0,1,1-1l1-.4L229,150.09V149h0V76.77Z" transform="translate(-121.95 -44.03)"/></g></svg>